<svg width="3206" height="3168" viewBox="0 0 3206 3168" fill="none" xmlns="http://www.w3.org/2000/svg">
<path d="M1600.6 9.6565C1912 6.87787 2373.13 -36.763 2653.96 87.5398C2939.62 213.967 3176.15 538.413 3196.42 852.725C3227.31 1331.39 3171.41 1844.53 3196.26 2324.5C3138.88 2771.21 2774.44 3141.25 2317.72 3145.09C1878 3148.85 1411.14 3180.89 976.654 3162.17C457.572 3139.78 39.4304 2805.04 8.12693 2267.29C-12.3879 1915.39 12.0501 1526.13 14.9924 1171.86C16.055 1039.63 -3.47907 906.418 18.8338 773.616C74.5752 441.978 346.989 153.165 664.191 54.1146C860.594 -7.1787 1008.86 25.3476 1206.16 23.9583C1335.7 22.9776 1470.64 10.8006 1600.52 9.6565H1600.6ZM2490.91 482.841C2463.53 489.052 2365.86 560.234 2335.29 580.828C2288.13 612.619 2220.05 657.486 2178.77 694.017C2064.92 794.619 2036.23 955.289 1944.2 1072.4C1913.55 1111.3 1823.89 1177.33 1822.34 1221.14C1821.03 1258.57 1924.26 1365.71 1957.11 1364.07C1991.69 1362.36 2074.81 1256.93 2109.79 1229.8C2214.41 1148.49 2395.77 1104.52 2475.38 998.767L2681.26 648.333C2664.51 587.366 2558.17 467.64 2490.91 482.841ZM2120.09 2497.02C2261.65 2630.39 2416.45 2699.53 2575.34 2537.06C2790.54 2316.82 2456.09 2044.76 2305.37 1899.12C2214.16 1811.03 2114.45 1729.95 2023.07 1642.02C1952.78 1574.35 1766.6 1408.37 1721.23 1339.07C1675.87 1269.76 1718.37 1196.21 1724.83 1122.74C1746.16 878.714 1597.98 670.807 1373.38 583.607C1211.06 520.597 1029.21 530.486 1162.59 745.339C1242.45 874.055 1411.14 1020.59 1242.86 1163.77C1152.3 1240.83 1048.82 1245.17 965.129 1155.27C909.715 1095.77 825.694 889.747 760.799 876.671C689.201 862.287 673.999 992.392 670.73 1041.18C654.138 1290.28 796.843 1618.32 1075.3 1641.61C1152.95 1648.07 1235.5 1625.1 1310.53 1643.41C1370.77 1658.12 1562.35 1870.93 1614.74 1927.65C1782.29 2108.91 1942.56 2329.73 2120.17 2496.94L2120.09 2497.02ZM1232.31 1732.9C1055.85 1879.27 673.836 2042.63 599.214 2269.17C522.549 2501.92 745.76 2731.41 978.533 2648.46C1138.16 2591.58 1314.94 2287.48 1419.23 2149.28C1497.45 2045.57 1568.89 2041.33 1463.12 1915.71C1429.04 1875.18 1329.66 1774 1287.73 1747.93C1271.3 1737.72 1252.42 1729.22 1232.31 1732.9Z" fill="#FE5937"/>
</svg>
